<svg viewBox = "0 0 88 88" width="88" height="88" xmlns="http://www.w3.org/2000/svg"><g transform="matrix(1 0 0 1 44 44)"  ><g style=""   ><g transform="matrix(1 0 0 1 1.77 19.59)"  ><path style="stroke: none; stroke-width: 1; stroke-dasharray: none; stroke-linecap: butt; stroke-dashoffset: 0; stroke-linejoin: miter; stroke-miterlimit: 4; fill: rgb(99,106,232); fill-rule: nonzero; opacity: 1;"  transform=" translate(-45.77, -63.59)" d="M 11.6633 62.7727 C 10.7063 63.311 10.7063 64.689 11.6633 65.2273 L 42.2755 82.4467 C 43.9902 83.4112 46.0838 83.4112 47.7985 82.4467 L 80.5926 64 L 45.037 44 L 11.6633 62.7727 Z" stroke-linecap="round" /></g><g transform="matrix(1 0 0 1 1.77 -19.59)"  ><path style="stroke: none; stroke-width: 1; stroke-dasharray: none; stroke-linecap: butt; stroke-dashoffset: 0; stroke-linejoin: miter; stroke-miterlimit: 4; fill: rgb(232,97,140); fill-rule: nonzero; opacity: 1;"  transform=" translate(-45.77, -24.41)" d="M 80.5926 24 L 47.7985 5.55333 C 46.0838 4.58884 43.9902 4.58883 42.2755 5.55333 L 11.6634 22.7727 C 10.7063 23.311 10.7063 24.689 11.6633 25.2273 L 45.037 44 L 80.5926 24 Z" stroke-linecap="round" /></g><g transform="matrix(1 0 0 1 -17.48 0)"  ><path style="stroke: none; stroke-width: 1; stroke-dasharray: none; stroke-linecap: butt; stroke-dashoffset: 0; stroke-linejoin: miter; stroke-miterlimit: 4; fill: rgb(34,204,178); fill-rule: nonzero; opacity: 1;"  transform=" translate(-26.52, -44)" d="M 9.97529 28.5729 C 9.04462 28.1634 8 28.845 8 29.8618 L 8 58.1383 C 8 59.1551 9.04462 59.8367 9.97528 59.4272 L 45.037 44 L 9.97529 28.5729 Z" stroke-linecap="round" /></g></g></g></svg>